<svg width="128" height="128" viewBox="0 0 128 128" fill="none" xmlns="http://www.w3.org/2000/svg">
<g clip-path="url(#clip0_35_12)">
<path fill-rule="evenodd" clip-rule="evenodd" d="M59.4908 2.1242C60.6306 0.777154 62.3038 -7.62939e-06 64.0683 -7.62939e-06C65.8329 -7.62939e-06 67.506 0.777154 68.6458 2.1242L75.5579 10.301C76.8531 11.8278 78.5445 12.9676 80.4493 13.5863C82.354 14.2049 84.3929 14.2781 86.3373 13.8027L96.7357 11.2518C98.4485 10.8312 100.259 11.1848 101.685 12.224C103.114 13.2602 104.01 14.8724 104.141 16.6309L104.928 27.3097C105.077 29.3059 105.778 31.2229 106.954 32.8411C108.131 34.4625 109.737 35.7211 111.59 36.4769L121.501 40.5272C123.134 41.1916 124.39 42.5448 124.935 44.224C125.481 45.9002 125.258 47.7318 124.332 49.2313L118.691 58.3345C117.636 60.0351 117.079 61.9977 117.079 64C117.079 66.0023 117.636 67.9649 118.691 69.6655L124.332 78.7687C125.258 80.2682 125.481 82.0998 124.935 83.776C124.39 85.4552 123.134 86.8084 121.501 87.4727L111.59 91.5231C109.737 92.2789 108.131 93.5375 106.954 95.1588C105.778 96.7771 105.077 98.6941 104.928 100.69L104.141 111.369C104.01 113.128 103.114 114.74 101.685 115.776C100.259 116.815 98.4485 117.169 96.7357 116.748L86.3373 114.197C84.3929 113.722 82.354 113.795 80.4493 114.414C78.5445 115.032 76.8531 116.172 75.5579 117.699L68.6458 125.876C67.506 127.223 65.8329 128 64.0683 128C62.3038 128 60.6306 127.223 59.4908 125.876L52.5788 117.699C51.2835 116.172 49.5921 115.032 47.6874 114.414C45.7826 113.795 43.7437 113.722 41.7993 114.197L31.4009 116.748C29.6881 117.169 27.8778 116.815 26.4516 115.776C25.0222 114.74 24.1262 113.128 23.9952 111.369L23.2089 100.69C23.0596 98.6941 22.3586 96.7771 21.1822 95.1588C20.0058 93.5375 18.3997 92.2789 16.5468 91.5231L6.63593 87.4727C5.00241 86.8084 3.74679 85.4552 3.20127 83.776C2.65575 82.0998 2.87822 80.2682 3.80469 78.7687L9.44583 69.6655C10.5003 67.9649 11.058 66.0023 11.058 64C11.058 61.9977 10.5003 60.0351 9.44583 58.3345L3.80469 49.2313C2.87822 47.7318 2.65575 45.9002 3.20127 44.224C3.74679 42.5448 5.00241 41.1916 6.63593 40.5272L16.5468 36.4769C18.3997 35.7211 20.0058 34.4625 21.1822 32.8411C22.3586 31.2229 23.0596 29.3059 23.2089 27.3097L23.9952 16.6309C24.1262 14.8724 25.0222 13.2602 26.4516 12.224C27.8778 11.1848 29.6881 10.8312 31.4009 11.2518L41.7993 13.8027C43.7437 14.2781 45.7826 14.2049 47.6874 13.5863C49.5921 12.9676 51.2835 11.8278 52.5788 10.301L59.4908 2.1242ZM36.0546 66.1547L53.292 83.395C54.4836 84.5836 56.4127 84.5836 57.6043 83.395L92.082 48.9143C93.2737 47.7257 93.2737 45.7935 92.082 44.605C90.8935 43.4164 88.9613 43.4164 87.7727 44.605L55.4496 76.931L40.3639 61.8453C39.1754 60.6568 37.2432 60.6568 36.0546 61.8453C34.863 63.0339 34.863 64.9661 36.0546 66.1547Z" fill="#2ECC71"/>
</g>
<defs>
<clipPath id="clip0_35_12">
<rect width="128" height="128" fill="white"/>
</clipPath>
</defs>
</svg>
